<?xml version="1.0" encoding="iso-8859-1"?>
<!-- Generator: Adobe Illustrator 22.0.1, SVG Export Plug-In . SVG Version: 6.00 Build 0)  -->
<svg version="1.1" xmlns="http://www.w3.org/2000/svg" xmlns:xlink="http://www.w3.org/1999/xlink" x="0px" y="0px"
	 viewBox="0 0 512 512" style="enable-background:new 0 0 512 512;" xml:space="preserve">
<g id="BULINE">
	<circle id="XMLID_2366_" style="fill:#F9BD38;" cx="256" cy="256" r="256"/>
</g>
<g id="Icons">
	<g id="XMLID_1590_">
		<path id="XMLID_1591_" style="fill:#3E436D;" d="M356.645,470.221H157.019c-12.994,0-23.528-10.534-23.528-23.528v-385.7
			c0-12.994,10.534-23.528,23.528-23.528h199.625c12.994,0,23.528,10.534,23.528,23.528v385.7
			C380.173,459.687,369.639,470.221,356.645,470.221z"/>
		<rect id="XMLID_1592_" x="133.491" y="233.227" style="fill:#32314B;" width="246.681" height="61.233"/>
		<path id="XMLID_1593_" style="fill:#32314B;" d="M220.218,470.226h-64.86c-12.993,0-23.53-10.537-23.53-23.53V60.99
			c0-12.993,10.537-23.52,23.53-23.52h64.86c-12.993,0-23.53,10.527-23.53,23.52v385.705
			C196.688,459.689,207.225,470.226,220.218,470.226z"/>
		<rect id="XMLID_1594_" x="131.827" y="233.226" style="fill:#27273D;" width="64.86" height="61.234"/>
		<path id="XMLID_1595_" style="fill:#27273D;" d="M323.86,72.043H189.804c-7.611,0-13.781,6.17-13.781,13.781v147.402h161.619
			V85.824C337.641,78.213,331.471,72.043,323.86,72.043z"/>
		<circle id="XMLID_1596_" style="fill:#FFFFFF;" cx="180.276" cy="313.838" r="13.468"/>
		<circle id="XMLID_1597_" style="fill:#00B764;" cx="231.313" cy="313.838" r="13.468"/>
		<circle id="XMLID_1598_" style="fill:#FE4583;" cx="282.351" cy="313.838" r="13.468"/>
		<circle id="XMLID_1599_" style="fill:#F9BD38;" cx="333.388" cy="313.838" r="13.468"/>
		<circle id="XMLID_1600_" style="fill:#FE4583;" cx="317.085" cy="391.103" r="24.101"/>
		<path id="XMLID_1637_" style="fill:#38C689;" d="M228.089,380.47h-5.678c-3.696,0-6.693-2.996-6.693-6.693V368.1
			c0-3.696-2.996-6.693-6.693-6.693h-7.88c-3.696,0-6.693,2.996-6.693,6.693v5.678c0,3.696-2.996,6.693-6.693,6.693h-5.678
			c-3.696,0-6.693,2.996-6.693,6.693v7.88c0,3.696,2.996,6.693,6.693,6.693h5.678c3.696,0,6.693,2.996,6.693,6.693v5.678
			c0,3.696,2.996,6.693,6.693,6.693h7.88c3.696,0,6.693-2.996,6.693-6.693v-5.678c0-3.696,2.996-6.693,6.693-6.693h5.678
			c3.696,0,6.693-2.996,6.693-6.693v-7.88C234.781,383.467,231.785,380.47,228.089,380.47z"/>
		<rect id="XMLID_1638_" x="243.705" y="89.03" style="fill:#F9BD38;" width="26.254" height="68.605"/>
		<polygon id="XMLID_1639_" style="fill:#FE4583;" points="202.277,206.97 202.277,164.619 176.023,164.619 176.023,206.97 
			176.023,233.224 202.277,233.224 224.005,233.224 224.005,206.97 		"/>
		<rect id="XMLID_1642_" x="224.005" y="206.973" style="fill:#24D3B5;" width="23.988" height="26.252"/>
		<polygon id="XMLID_1643_" style="fill:#954CF7;" points="289.666,180.639 289.666,233.226 313.654,233.226 337.641,233.226 
			337.641,180.639 		"/>
	</g>
</g>
</svg>
